<svg id="visual" viewBox="0 0 1920 600" width="1920" height="600" xmlns="http://www.w3.org/2000/svg" xmlns:xlink="http://www.w3.org/1999/xlink" version="1.1" preserveAspectRatio="none">
<path d="M0 215L13.8 226C27.7 237 55.3 259 83.2 269.5C111 280 139 279 166.8 272.3C194.7 265.7 222.3 253.3 250.2 234.8C278 216.3 306 191.7 333.8 179.8C361.7 168 389.3 169 417.2 176.7C445 184.3 473 198.7 500.8 211.7C528.7 224.7 556.3 236.3 584.2 241.3C612 246.3 640 244.7 667.8 234.3C695.7 224 723.3 205 751.2 208.7C779 212.3 807 238.7 834.8 244.3C862.7 250 890.3 235 918.2 233.7C946 232.3 974 244.7 1001.8 248.5C1029.7 252.3 1057.3 247.7 1085.2 241.2C1113 234.7 1141 226.3 1168.8 219C1196.7 211.7 1224.3 205.3 1252.2 200.5C1280 195.7 1308 192.3 1335.8 192.8C1363.7 193.3 1391.3 197.7 1419.2 213.3C1447 229 1475 256 1502.8 258.3C1530.7 260.7 1558.3 238.3 1586.2 223.3C1614 208.3 1642 200.7 1669.8 203.7C1697.7 206.7 1725.3 220.3 1753.2 224.7C1781 229 1809 224 1836.8 218C1864.7 212 1892.3 205 1906.2 201.5L1920 198L1920 601L1906.2 601C1892.3 601 1864.7 601 1836.8 601C1809 601 1781 601 1753.2 601C1725.3 601 1697.7 601 1669.8 601C1642 601 1614 601 1586.2 601C1558.3 601 1530.7 601 1502.8 601C1475 601 1447 601 1419.2 601C1391.3 601 1363.7 601 1335.8 601C1308 601 1280 601 1252.2 601C1224.3 601 1196.7 601 1168.8 601C1141 601 1113 601 1085.2 601C1057.3 601 1029.7 601 1001.8 601C974 601 946 601 918.2 601C890.3 601 862.7 601 834.8 601C807 601 779 601 751.2 601C723.3 601 695.7 601 667.8 601C640 601 612 601 584.2 601C556.3 601 528.7 601 500.8 601C473 601 445 601 417.2 601C389.3 601 361.7 601 333.8 601C306 601 278 601 250.2 601C222.3 601 194.7 601 166.8 601C139 601 111 601 83.2 601C55.3 601 27.7 601 13.8 601L0 601Z" fill="#f5deb300"></path>
<path d="M0 195L13.8 195C27.7 195 55.3 195 83.2 211.7C111 228.3 139 261.7 166.8 279C194.7 296.3 222.3 297.7 250.2 290.7C278 283.7 306 268.3 333.8 259.3C361.7 250.3 389.3 247.7 417.2 242.3C445 237 473 229 500.8 239.5C528.7 250 556.3 279 584.2 277.2C612 275.3 640 242.7 667.8 236.8C695.7 231 723.3 252 751.2 262.3C779 272.7 807 272.3 834.8 268.2C862.7 264 890.3 256 918.2 253.5C946 251 974 254 1001.8 256.8C1029.7 259.7 1057.3 262.3 1085.2 264.2C1113 266 1141 267 1168.8 260C1196.7 253 1224.3 238 1252.2 234.2C1280 230.3 1308 237.7 1335.8 235.7C1363.7 233.7 1391.3 222.3 1419.2 215.7C1447 209 1475 207 1502.8 218.2C1530.7 229.3 1558.3 253.7 1586.2 266.7C1614 279.7 1642 281.3 1669.8 274.8C1697.7 268.3 1725.3 253.7 1753.2 248.3C1781 243 1809 247 1836.8 251.2C1864.7 255.3 1892.3 259.7 1906.2 261.8L1920 264L1920 601L1906.2 601C1892.3 601 1864.7 601 1836.8 601C1809 601 1781 601 1753.2 601C1725.3 601 1697.7 601 1669.8 601C1642 601 1614 601 1586.2 601C1558.3 601 1530.7 601 1502.8 601C1475 601 1447 601 1419.2 601C1391.3 601 1363.7 601 1335.8 601C1308 601 1280 601 1252.2 601C1224.3 601 1196.7 601 1168.8 601C1141 601 1113 601 1085.2 601C1057.3 601 1029.7 601 1001.8 601C974 601 946 601 918.2 601C890.3 601 862.7 601 834.8 601C807 601 779 601 751.2 601C723.3 601 695.7 601 667.8 601C640 601 612 601 584.2 601C556.3 601 528.7 601 500.8 601C473 601 445 601 417.2 601C389.3 601 361.7 601 333.8 601C306 601 278 601 250.2 601C222.3 601 194.7 601 166.8 601C139 601 111 601 83.2 601C55.3 601 27.7 601 13.8 601L0 601Z" fill="#f5deb317"></path>
<path d="M0 307L13.8 294.2C27.7 281.3 55.3 255.7 83.2 252C111 248.3 139 266.7 166.8 283.2C194.7 299.7 222.3 314.3 250.2 316C278 317.7 306 306.3 333.8 306.8C361.7 307.3 389.3 319.7 417.2 319.8C445 320 473 308 500.8 301.2C528.7 294.3 556.3 292.7 584.2 297.2C612 301.7 640 312.3 667.8 305.7C695.7 299 723.3 275 751.2 264.3C779 253.7 807 256.3 834.8 255C862.7 253.7 890.3 248.3 918.2 259.3C946 270.3 974 297.7 1001.8 306.2C1029.7 314.7 1057.3 304.3 1085.2 291.5C1113 278.7 1141 263.3 1168.8 259.7C1196.7 256 1224.3 264 1252.2 277.2C1280 290.3 1308 308.7 1335.8 319C1363.7 329.3 1391.3 331.7 1419.2 328.8C1447 326 1475 318 1502.8 317.8C1530.7 317.7 1558.3 325.3 1586.2 316.7C1614 308 1642 283 1669.8 271.8C1697.7 260.7 1725.3 263.3 1753.2 259.7C1781 256 1809 246 1836.8 241C1864.7 236 1892.3 236 1906.2 236L1920 236L1920 601L1906.2 601C1892.3 601 1864.7 601 1836.8 601C1809 601 1781 601 1753.2 601C1725.3 601 1697.7 601 1669.8 601C1642 601 1614 601 1586.2 601C1558.3 601 1530.7 601 1502.8 601C1475 601 1447 601 1419.2 601C1391.3 601 1363.7 601 1335.8 601C1308 601 1280 601 1252.2 601C1224.3 601 1196.7 601 1168.8 601C1141 601 1113 601 1085.2 601C1057.3 601 1029.7 601 1001.8 601C974 601 946 601 918.2 601C890.3 601 862.7 601 834.8 601C807 601 779 601 751.2 601C723.3 601 695.7 601 667.8 601C640 601 612 601 584.2 601C556.3 601 528.7 601 500.8 601C473 601 445 601 417.2 601C389.3 601 361.7 601 333.8 601C306 601 278 601 250.2 601C222.3 601 194.7 601 166.8 601C139 601 111 601 83.2 601C55.3 601 27.7 601 13.8 601L0 601Z" fill="#f5deb32e"></path>
<path d="M0 306L13.8 312.5C27.7 319 55.3 332 83.2 329.2C111 326.3 139 307.7 166.8 294.7C194.7 281.7 222.3 274.3 250.2 286C278 297.7 306 328.3 333.8 336.3C361.7 344.3 389.3 329.7 417.2 323.5C445 317.3 473 319.7 500.8 328C528.7 336.3 556.3 350.7 584.2 353.8C612 357 640 349 667.8 337.5C695.7 326 723.3 311 751.2 305.5C779 300 807 304 834.8 314.3C862.7 324.7 890.3 341.3 918.2 350C946 358.7 974 359.3 1001.8 346.7C1029.7 334 1057.3 308 1085.2 294.3C1113 280.7 1141 279.3 1168.8 287.5C1196.7 295.7 1224.3 313.3 1252.2 315.2C1280 317 1308 303 1335.8 293.5C1363.7 284 1391.3 279 1419.2 286C1447 293 1475 312 1502.8 321.7C1530.7 331.3 1558.3 331.7 1586.2 323.8C1614 316 1642 300 1669.8 302.3C1697.7 304.7 1725.3 325.3 1753.2 329.5C1781 333.7 1809 321.3 1836.8 309.7C1864.7 298 1892.3 287 1906.2 281.5L1920 276L1920 601L1906.2 601C1892.3 601 1864.7 601 1836.8 601C1809 601 1781 601 1753.2 601C1725.3 601 1697.7 601 1669.8 601C1642 601 1614 601 1586.2 601C1558.3 601 1530.7 601 1502.8 601C1475 601 1447 601 1419.2 601C1391.3 601 1363.7 601 1335.8 601C1308 601 1280 601 1252.2 601C1224.3 601 1196.7 601 1168.8 601C1141 601 1113 601 1085.2 601C1057.3 601 1029.7 601 1001.8 601C974 601 946 601 918.2 601C890.3 601 862.7 601 834.8 601C807 601 779 601 751.2 601C723.3 601 695.7 601 667.8 601C640 601 612 601 584.2 601C556.3 601 528.7 601 500.8 601C473 601 445 601 417.2 601C389.3 601 361.7 601 333.8 601C306 601 278 601 250.2 601C222.3 601 194.7 601 166.8 601C139 601 111 601 83.2 601C55.3 601 27.7 601 13.8 601L0 601Z" fill="#f5deb345"></path>
<path d="M0 316L13.8 321.5C27.7 327 55.3 338 83.2 336.2C111 334.3 139 319.7 166.8 315.2C194.7 310.7 222.3 316.3 250.2 317.7C278 319 306 316 333.8 321C361.7 326 389.3 339 417.2 337.2C445 335.3 473 318.7 500.8 324.2C528.7 329.7 556.3 357.3 584.2 366.3C612 375.3 640 365.7 667.8 350.8C695.7 336 723.3 316 751.2 311C779 306 807 316 834.8 320.2C862.7 324.3 890.3 322.7 918.2 328.2C946 333.7 974 346.3 1001.8 351.3C1029.7 356.3 1057.3 353.7 1085.2 349.8C1113 346 1141 341 1168.8 342.3C1196.7 343.7 1224.3 351.3 1252.2 350.7C1280 350 1308 341 1335.8 339.7C1363.7 338.3 1391.3 344.7 1419.2 349.7C1447 354.7 1475 358.3 1502.8 362.7C1530.7 367 1558.3 372 1586.2 374.8C1614 377.7 1642 378.3 1669.8 370.3C1697.7 362.3 1725.3 345.7 1753.2 346C1781 346.3 1809 363.7 1836.8 370C1864.7 376.3 1892.3 371.7 1906.2 369.3L1920 367L1920 601L1906.2 601C1892.3 601 1864.7 601 1836.8 601C1809 601 1781 601 1753.2 601C1725.3 601 1697.7 601 1669.8 601C1642 601 1614 601 1586.2 601C1558.3 601 1530.7 601 1502.8 601C1475 601 1447 601 1419.2 601C1391.3 601 1363.7 601 1335.8 601C1308 601 1280 601 1252.2 601C1224.3 601 1196.7 601 1168.8 601C1141 601 1113 601 1085.2 601C1057.3 601 1029.7 601 1001.8 601C974 601 946 601 918.2 601C890.3 601 862.7 601 834.8 601C807 601 779 601 751.2 601C723.3 601 695.7 601 667.8 601C640 601 612 601 584.2 601C556.3 601 528.7 601 500.8 601C473 601 445 601 417.2 601C389.3 601 361.7 601 333.8 601C306 601 278 601 250.2 601C222.3 601 194.7 601 166.8 601C139 601 111 601 83.2 601C55.3 601 27.7 601 13.8 601L0 601Z" fill="#f5deb35c"></path>
<path d="M0 401L13.8 399.2C27.7 397.3 55.3 393.7 83.2 393C111 392.3 139 394.7 166.8 394.5C194.7 394.3 222.3 391.7 250.2 394.5C278 397.3 306 405.7 333.8 403.8C361.7 402 389.3 390 417.2 383.2C445 376.3 473 374.7 500.8 373.8C528.7 373 556.3 373 584.2 376.7C612 380.3 640 387.7 667.8 383C695.7 378.3 723.3 361.7 751.2 363.3C779 365 807 385 834.8 393C862.7 401 890.3 397 918.2 385.7C946 374.3 974 355.7 1001.8 346.2C1029.7 336.7 1057.3 336.3 1085.2 337.3C1113 338.3 1141 340.7 1168.8 353.8C1196.7 367 1224.3 391 1252.2 391.3C1280 391.7 1308 368.3 1335.8 364.7C1363.7 361 1391.3 377 1419.2 375C1447 373 1475 353 1502.8 353.5C1530.7 354 1558.3 375 1586.2 388.7C1614 402.3 1642 408.7 1669.8 403.2C1697.7 397.7 1725.3 380.3 1753.2 371.3C1781 362.3 1809 361.7 1836.8 364.8C1864.7 368 1892.3 375 1906.2 378.5L1920 382L1920 601L1906.2 601C1892.3 601 1864.7 601 1836.8 601C1809 601 1781 601 1753.2 601C1725.3 601 1697.7 601 1669.8 601C1642 601 1614 601 1586.2 601C1558.3 601 1530.7 601 1502.8 601C1475 601 1447 601 1419.2 601C1391.3 601 1363.7 601 1335.8 601C1308 601 1280 601 1252.2 601C1224.3 601 1196.7 601 1168.8 601C1141 601 1113 601 1085.2 601C1057.3 601 1029.7 601 1001.8 601C974 601 946 601 918.2 601C890.3 601 862.7 601 834.8 601C807 601 779 601 751.2 601C723.3 601 695.7 601 667.8 601C640 601 612 601 584.2 601C556.3 601 528.7 601 500.8 601C473 601 445 601 417.2 601C389.3 601 361.7 601 333.8 601C306 601 278 601 250.2 601C222.3 601 194.7 601 166.8 601C139 601 111 601 83.2 601C55.3 601 27.7 601 13.8 601L0 601Z" fill="#f5deb373"></path>
<path d="M0 412L13.8 407C27.7 402 55.3 392 83.2 388.2C111 384.3 139 386.7 166.8 384.3C194.7 382 222.3 375 250.2 374.7C278 374.3 306 380.7 333.8 380.7C361.7 380.7 389.3 374.3 417.2 372C445 369.7 473 371.3 500.8 374.5C528.7 377.7 556.3 382.3 584.2 382.3C612 382.3 640 377.7 667.8 374.5C695.7 371.3 723.3 369.7 751.2 376.3C779 383 807 398 834.8 399.2C862.7 400.3 890.3 387.7 918.2 387C946 386.3 974 397.7 1001.8 406.5C1029.7 415.3 1057.3 421.7 1085.2 426.7C1113 431.7 1141 435.3 1168.8 436.5C1196.7 437.7 1224.3 436.3 1252.2 431.3C1280 426.3 1308 417.7 1335.8 410C1363.7 402.3 1391.3 395.7 1419.2 393.2C1447 390.7 1475 392.3 1502.8 396.8C1530.7 401.3 1558.3 408.7 1586.2 412C1614 415.3 1642 414.7 1669.8 413C1697.7 411.3 1725.3 408.7 1753.2 411.7C1781 414.7 1809 423.3 1836.8 418.3C1864.7 413.3 1892.3 394.7 1906.2 385.3L1920 376L1920 601L1906.2 601C1892.3 601 1864.7 601 1836.8 601C1809 601 1781 601 1753.2 601C1725.3 601 1697.7 601 1669.8 601C1642 601 1614 601 1586.2 601C1558.3 601 1530.7 601 1502.8 601C1475 601 1447 601 1419.2 601C1391.3 601 1363.7 601 1335.8 601C1308 601 1280 601 1252.2 601C1224.3 601 1196.7 601 1168.8 601C1141 601 1113 601 1085.2 601C1057.3 601 1029.7 601 1001.8 601C974 601 946 601 918.2 601C890.3 601 862.7 601 834.8 601C807 601 779 601 751.2 601C723.3 601 695.7 601 667.8 601C640 601 612 601 584.2 601C556.3 601 528.7 601 500.8 601C473 601 445 601 417.2 601C389.3 601 361.7 601 333.8 601C306 601 278 601 250.2 601C222.3 601 194.7 601 166.8 601C139 601 111 601 83.2 601C55.3 601 27.7 601 13.8 601L0 601Z" fill="#f5deb38a"></path>
<path d="M0 417L13.8 420.7C27.7 424.3 55.3 431.7 83.2 432.5C111 433.3 139 427.7 166.8 431.3C194.7 435 222.3 448 250.2 447C278 446 306 431 333.8 427.2C361.7 423.3 389.3 430.7 417.2 438.7C445 446.7 473 455.3 500.8 457.7C528.7 460 556.3 456 584.2 449.8C612 443.7 640 435.3 667.8 428.8C695.7 422.3 723.3 417.7 751.2 414.8C779 412 807 411 834.8 413.7C862.7 416.3 890.3 422.7 918.2 422.2C946 421.7 974 414.3 1001.8 412.8C1029.7 411.3 1057.3 415.7 1085.2 422.8C1113 430 1141 440 1168.8 441.3C1196.7 442.7 1224.3 435.3 1252.2 437.3C1280 439.3 1308 450.7 1335.8 447.8C1363.7 445 1391.3 428 1419.2 419.2C1447 410.3 1475 409.7 1502.8 408.5C1530.7 407.3 1558.3 405.7 1586.2 406.3C1614 407 1642 410 1669.8 413.5C1697.7 417 1725.3 421 1753.2 425.8C1781 430.7 1809 436.3 1836.8 440.7C1864.7 445 1892.3 448 1906.2 449.5L1920 451L1920 601L1906.2 601C1892.3 601 1864.7 601 1836.8 601C1809 601 1781 601 1753.2 601C1725.3 601 1697.7 601 1669.8 601C1642 601 1614 601 1586.2 601C1558.3 601 1530.7 601 1502.8 601C1475 601 1447 601 1419.2 601C1391.3 601 1363.7 601 1335.8 601C1308 601 1280 601 1252.2 601C1224.3 601 1196.7 601 1168.8 601C1141 601 1113 601 1085.2 601C1057.3 601 1029.7 601 1001.8 601C974 601 946 601 918.2 601C890.3 601 862.7 601 834.8 601C807 601 779 601 751.2 601C723.3 601 695.7 601 667.8 601C640 601 612 601 584.2 601C556.3 601 528.7 601 500.8 601C473 601 445 601 417.2 601C389.3 601 361.7 601 333.8 601C306 601 278 601 250.2 601C222.3 601 194.7 601 166.8 601C139 601 111 601 83.2 601C55.3 601 27.7 601 13.8 601L0 601Z" fill="#f5deb3a1"></path>
<path d="M0 491L13.8 486.7C27.7 482.3 55.3 473.7 83.2 468.7C111 463.7 139 462.3 166.8 457.8C194.7 453.3 222.3 445.7 250.2 448.7C278 451.7 306 465.3 333.8 467.2C361.7 469 389.3 459 417.2 457.3C445 455.7 473 462.3 500.8 460.5C528.7 458.7 556.3 448.3 584.2 449.5C612 450.7 640 463.3 667.8 469.8C695.7 476.3 723.3 476.7 751.2 473.8C779 471 807 465 834.8 461C862.7 457 890.3 455 918.2 458.2C946 461.3 974 469.7 1001.8 473.2C1029.7 476.7 1057.3 475.3 1085.2 472.7C1113 470 1141 466 1168.8 464.8C1196.7 463.7 1224.3 465.3 1252.2 464C1280 462.7 1308 458.3 1335.8 460.3C1363.7 462.3 1391.3 470.7 1419.2 470.7C1447 470.7 1475 462.3 1502.8 458.2C1530.7 454 1558.3 454 1586.2 454.8C1614 455.7 1642 457.3 1669.8 460.7C1697.7 464 1725.3 469 1753.2 471.5C1781 474 1809 474 1836.8 468.5C1864.7 463 1892.3 452 1906.2 446.5L1920 441L1920 601L1906.2 601C1892.3 601 1864.7 601 1836.8 601C1809 601 1781 601 1753.2 601C1725.3 601 1697.7 601 1669.8 601C1642 601 1614 601 1586.2 601C1558.3 601 1530.7 601 1502.8 601C1475 601 1447 601 1419.2 601C1391.3 601 1363.7 601 1335.8 601C1308 601 1280 601 1252.2 601C1224.3 601 1196.7 601 1168.8 601C1141 601 1113 601 1085.2 601C1057.3 601 1029.7 601 1001.8 601C974 601 946 601 918.2 601C890.3 601 862.7 601 834.8 601C807 601 779 601 751.2 601C723.3 601 695.7 601 667.8 601C640 601 612 601 584.2 601C556.3 601 528.7 601 500.8 601C473 601 445 601 417.2 601C389.3 601 361.7 601 333.8 601C306 601 278 601 250.2 601C222.3 601 194.7 601 166.8 601C139 601 111 601 83.2 601C55.3 601 27.7 601 13.8 601L0 601Z" fill="#f5deb3b8"></path>
<path d="M0 506L13.8 502.2C27.7 498.3 55.3 490.7 83.2 490C111 489.3 139 495.7 166.8 501C194.7 506.3 222.3 510.7 250.2 507.5C278 504.3 306 493.7 333.8 488.5C361.7 483.3 389.3 483.7 417.2 481.5C445 479.3 473 474.7 500.8 480C528.7 485.3 556.3 500.7 584.2 501.5C612 502.3 640 488.7 667.8 483.8C695.7 479 723.3 483 751.2 485.8C779 488.7 807 490.3 834.8 488.7C862.7 487 890.3 482 918.2 484.2C946 486.3 974 495.7 1001.8 498.7C1029.7 501.7 1057.3 498.3 1085.2 499.2C1113 500 1141 505 1168.8 502.7C1196.7 500.3 1224.3 490.7 1252.2 489.2C1280 487.7 1308 494.3 1335.8 499.5C1363.7 504.7 1391.3 508.3 1419.2 505.5C1447 502.7 1475 493.3 1502.8 490.8C1530.7 488.3 1558.3 492.7 1586.2 497.8C1614 503 1642 509 1669.8 508.2C1697.7 507.3 1725.3 499.7 1753.2 497.8C1781 496 1809 500 1836.8 501C1864.7 502 1892.3 500 1906.2 499L1920 498L1920 601L1906.2 601C1892.3 601 1864.7 601 1836.8 601C1809 601 1781 601 1753.2 601C1725.3 601 1697.7 601 1669.8 601C1642 601 1614 601 1586.2 601C1558.3 601 1530.7 601 1502.8 601C1475 601 1447 601 1419.2 601C1391.3 601 1363.7 601 1335.8 601C1308 601 1280 601 1252.2 601C1224.3 601 1196.7 601 1168.8 601C1141 601 1113 601 1085.2 601C1057.3 601 1029.7 601 1001.8 601C974 601 946 601 918.2 601C890.3 601 862.7 601 834.8 601C807 601 779 601 751.2 601C723.3 601 695.7 601 667.8 601C640 601 612 601 584.2 601C556.3 601 528.7 601 500.8 601C473 601 445 601 417.2 601C389.3 601 361.7 601 333.8 601C306 601 278 601 250.2 601C222.3 601 194.7 601 166.8 601C139 601 111 601 83.2 601C55.3 601 27.7 601 13.8 601L0 601Z" fill="#f5deb3cf"></path>
<path d="M0 532L13.8 533.2C27.7 534.3 55.3 536.7 83.2 532.5C111 528.3 139 517.7 166.8 515.8C194.7 514 222.3 521 250.2 521C278 521 306 514 333.8 512.5C361.7 511 389.3 515 417.2 515.7C445 516.3 473 513.7 500.8 512.2C528.7 510.7 556.3 510.3 584.2 512.2C612 514 640 518 667.8 519.8C695.7 521.7 723.3 521.3 751.2 519.8C779 518.3 807 515.7 834.8 517.5C862.7 519.3 890.3 525.7 918.2 525.8C946 526 974 520 1001.8 521C1029.7 522 1057.3 530 1085.2 529.8C1113 529.7 1141 521.3 1168.8 519.5C1196.7 517.7 1224.3 522.3 1252.2 523.2C1280 524 1308 521 1335.8 519.3C1363.7 517.7 1391.3 517.3 1419.2 519.7C1447 522 1475 527 1502.8 527.7C1530.7 528.3 1558.3 524.7 1586.2 522.7C1614 520.7 1642 520.3 1669.8 517.5C1697.7 514.7 1725.3 509.3 1753.2 506.8C1781 504.3 1809 504.7 1836.8 509.7C1864.7 514.7 1892.3 524.3 1906.2 529.2L1920 534L1920 601L1906.2 601C1892.3 601 1864.7 601 1836.8 601C1809 601 1781 601 1753.2 601C1725.3 601 1697.7 601 1669.8 601C1642 601 1614 601 1586.2 601C1558.3 601 1530.7 601 1502.8 601C1475 601 1447 601 1419.2 601C1391.3 601 1363.7 601 1335.8 601C1308 601 1280 601 1252.2 601C1224.3 601 1196.7 601 1168.8 601C1141 601 1113 601 1085.2 601C1057.3 601 1029.7 601 1001.8 601C974 601 946 601 918.2 601C890.3 601 862.7 601 834.8 601C807 601 779 601 751.2 601C723.3 601 695.7 601 667.8 601C640 601 612 601 584.2 601C556.3 601 528.7 601 500.8 601C473 601 445 601 417.2 601C389.3 601 361.7 601 333.8 601C306 601 278 601 250.2 601C222.3 601 194.7 601 166.8 601C139 601 111 601 83.2 601C55.3 601 27.7 601 13.8 601L0 601Z" fill="#f5deb3e6"></path>
<path d="M0 560L13.8 557.7C27.7 555.3 55.3 550.7 83.2 548C111 545.3 139 544.7 166.8 544.7C194.7 544.7 222.3 545.3 250.2 547.3C278 549.3 306 552.7 333.8 553.3C361.7 554 389.3 552 417.2 550.3C445 548.7 473 547.3 500.8 546.3C528.7 545.3 556.3 544.7 584.2 545.5C612 546.3 640 548.7 667.8 549.8C695.7 551 723.3 551 751.2 553.5C779 556 807 561 834.8 561.7C862.7 562.3 890.3 558.7 918.2 554.2C946 549.7 974 544.3 1001.8 543.2C1029.7 542 1057.3 545 1085.2 546.7C1113 548.3 1141 548.7 1168.8 547.7C1196.7 546.7 1224.3 544.3 1252.2 542.7C1280 541 1308 540 1335.8 544C1363.7 548 1391.3 557 1419.2 558.2C1447 559.3 1475 552.7 1502.8 550.5C1530.7 548.3 1558.3 550.7 1586.2 550.7C1614 550.7 1642 548.3 1669.8 549.8C1697.7 551.3 1725.3 556.7 1753.2 557.2C1781 557.7 1809 553.3 1836.8 551C1864.7 548.7 1892.3 548.3 1906.2 548.2L1920 548L1920 601L1906.2 601C1892.3 601 1864.7 601 1836.8 601C1809 601 1781 601 1753.2 601C1725.3 601 1697.7 601 1669.8 601C1642 601 1614 601 1586.2 601C1558.3 601 1530.7 601 1502.8 601C1475 601 1447 601 1419.2 601C1391.3 601 1363.7 601 1335.8 601C1308 601 1280 601 1252.2 601C1224.3 601 1196.7 601 1168.8 601C1141 601 1113 601 1085.2 601C1057.3 601 1029.7 601 1001.8 601C974 601 946 601 918.2 601C890.3 601 862.7 601 834.8 601C807 601 779 601 751.2 601C723.3 601 695.7 601 667.8 601C640 601 612 601 584.2 601C556.3 601 528.7 601 500.8 601C473 601 445 601 417.2 601C389.3 601 361.7 601 333.8 601C306 601 278 601 250.2 601C222.3 601 194.7 601 166.8 601C139 601 111 601 83.2 601C55.3 601 27.7 601 13.8 601L0 601Z" fill="#f5deb3ff"></path>
</svg>
